<svg width="16" height="16" viewBox="0 0 16 16" fill="none" xmlns="http://www.w3.org/2000/svg">
<path d="M8.00144 0.0571289C5.966 0.0571289 3.9311 0.831129 2.38202 2.38021C-0.715962 5.47819 -0.715962 10.5209 2.38202 13.6191C5.48 16.7169 10.5171 16.7169 13.6151 13.6191C16.7133 10.5209 16.7188 5.47819 13.6209 2.38021C12.0718 0.831129 10.0369 0.0571289 8.00144 0.0571289ZM7.43894 1.15963H7.46144V7.45405H4.20452C4.30892 5.60185 4.94162 3.78475 6.11144 2.38579C6.52004 1.89709 6.9677 1.48885 7.43894 1.15963ZM8.54144 1.15963H8.5526C9.04941 1.50744 9.49776 1.91977 9.88586 2.38579C11.0555 3.78475 11.6884 5.60167 11.7926 7.45405H8.54144V1.15963ZM5.28452 1.68829C3.93308 3.30433 3.20426 5.36245 3.09644 7.45405H1.15586C1.27952 5.88355 1.9376 4.34905 3.14126 3.14521C3.75678 2.52799 4.48414 2.03356 5.28452 1.68829ZM10.7239 1.69945C11.5178 2.04497 12.2391 2.53739 12.8501 3.15079C14.0534 4.35409 14.7165 5.88499 14.8414 7.45387H12.9009C12.7932 5.36767 12.0687 3.31387 10.7239 1.69945ZM1.15586 8.53405H3.09626C3.20246 10.6289 3.9311 12.6866 5.28452 14.3052C4.48657 13.9611 3.76122 13.4686 3.14702 12.8539C1.94102 11.6479 1.27934 10.1076 1.15586 8.53405ZM4.20452 8.53405H7.46144V14.8452H7.4501C6.97418 14.5144 6.52382 14.1009 6.11144 13.6077C4.93928 12.206 4.30694 10.3902 4.20452 8.53405ZM8.54144 8.53405H11.7926C11.6904 10.3898 11.0578 12.206 9.88586 13.6077C9.47222 14.1022 9.0188 14.5138 8.54126 14.8452V8.53387L8.54144 8.53405ZM12.9009 8.53405H14.847C14.7248 10.1074 14.0568 11.6472 12.8501 12.854C12.2349 13.4714 11.5076 13.9658 10.7072 14.3106C10.709 14.3086 10.7112 14.307 10.7128 14.305C12.0664 12.6865 12.795 10.6287 12.901 8.53369L12.9009 8.53405Z" fill="black"/>
</svg>
