<svg width="16" height="14" viewBox="0 0 16 14" fill="none" xmlns="http://www.w3.org/2000/svg">
<path d="M15.9965 2.0385C15.408 2.3 14.7765 2.4765 14.1115 2.555C14.789 2.149 15.3095 1.506 15.555 0.74C14.92 1.115 14.2185 1.39 13.471 1.536C12.872 0.8985 12.019 0.5 11.075 0.5C9.26201 0.5 7.79351 1.969 7.79351 3.7815C7.79351 4.0385 7.82201 4.2895 7.87851 4.5295C5.15001 4.3915 2.73201 3.085 1.11351 1.1C0.831012 1.585 0.668512 2.149 0.668512 2.75C0.668512 3.89 1.24851 4.8935 2.12851 5.4825C1.59051 5.465 1.08451 5.3175 0.642012 5.0725V5.1125C0.642012 6.7035 1.77201 8.03 3.27401 8.3315C2.99901 8.4065 2.70901 8.4465 2.40901 8.4465C2.19751 8.4465 1.99251 8.4265 1.79251 8.388C2.20951 9.691 3.42251 10.64 4.85751 10.667C3.73501 11.547 2.32001 12.072 0.782512 12.072C0.517512 12.072 0.256012 12.057 -0.000488281 12.027C1.45251 12.957 3.17751 13.5 5.03101 13.5C11.067 13.5 14.3685 8.5 14.3685 4.1625C14.3685 4.0205 14.3645 3.8785 14.3585 3.7375C15 3.275 15.556 2.6975 15.9965 2.0385Z" fill="black"/>
</svg>
